PathFileType	4	(X/Y/Z)	C:/Users/opensim2020/Desktop/walking_exp_matlab/subject02_walking14_straight_04.trc	
DataRate	CameraRate	NumFrames	NumMarkers	Units	OrigDataRate	OrigDataStartFrame	OrigNumFrames	
100.00	100.00	6	41	mm	100.00	1729	137	
Frame#	Time	LFHD			RFHD			LBHD			RBHD			C7			T10			CLAV			STRN			RBAK			LSHO			LUPA			LELB			LFRM			LWRA			LWRB			LFIN			RSHO			RUPA			RELB			RFRM			RWRA			RWRB			RFIN			LASI			RASI			LPSI			RPSI			LTHI			LKNE			LTIB			LANK			LHEE			LTOE			RTHI			RKNE			RTIB			RANK			RHEE			RTOE			*39			*40			
		X1	Y1	Z1	X2	Y2	Z2	X3	Y3	Z3	X4	Y4	Z4	X5	Y5	Z5	X6	Y6	Z6	X7	Y7	Z7	X8	Y8	Z8	X9	Y9	Z9	X10	Y10	Z10	X11	Y11	Z11	X12	Y12	Z12	X13	Y13	Z13	X14	Y14	Z14	X15	Y15	Z15	X16	Y16	Z16	X17	Y17	Z17	X18	Y18	Z18	X19	Y19	Z19	X20	Y20	Z20	X21	Y21	Z21	X22	Y22	Z22	X23	Y23	Z23	X24	Y24	Z24	X25	Y25	Z25	X26	Y26	Z26	X27	Y27	Z27	X28	Y28	Z28	X29	Y29	Z29	X30	Y30	Z30	X31	Y31	Z31	X32	Y32	Z32	X33	Y33	Z33	X34	Y34	Z34	X35	Y35	Z35	X36	Y36	Z36	X37	Y37	Z37	X38	Y38	Z38	X39	Y39	Z39	X40	Y40	Z40	X41	Y41	Z41	

52	0.510	-981.81573	216.62357	1727.13489	-1125.41345	223.32591	1713.47681	-969.04663	339.54120	1640.99988	-1112.12024	358.27249	1624.86633	-1034.36499	384.10129	1501.31921	-1040.76196	433.46268	1229.52576	-1042.21191	241.76466	1438.18469	-1055.14148	188.03203	1266.09460	-1089.14441	445.17114	1327.19189	-867.52905	283.52786	1480.27417	-782.33832	237.43922	1290.75500	-770.30066	190.67094	1153.15759	-815.43958	97.42181	1065.86938	-912.00012	4.66247	1029.73242	-868.60675	13.74301	994.12384	-894.58423	-41.92527	973.68384	-1229.18677	331.67197	1468.47046	-1300.30920	406.89532	1289.73547	-1319.63647	427.57886	1146.61292	-1342.91541	432.63977	1026.96069	-1326.91333	419.83264	889.63989	-1357.84045	466.48145	901.80560	-1355.98853	455.19235	827.53369	-915.55725	228.40253	961.25616	-1171.27295	216.98814	957.85669	-1004.49420	430.59552	1011.96643	-1115.63025	433.55847	1011.84674	-877.45697	362.37909	659.20416	-916.10785	442.75720	471.09912	-920.51807	551.69067	308.31763	-960.83691	609.46997	91.00037	-1012.17065	650.99231	70.85963	-950.17590	460.34445	34.96151	-1265.83008	234.19405	665.40424	-1241.96326	150.66080	474.31848	-1271.40015	109.93859	295.59769	-1261.00928	36.80831	111.63912	-1209.07288	41.62523	43.99448	-1272.91345	-126.52206	120.13609	-1064.56848	328.72275	1785.92700			 
53	0.520	-984.91382	202.04402	1724.50354	-1128.00476	209.09018	1710.82495	-971.68842	325.76099	1638.80408	-1114.86255	344.52859	1622.82019	-1036.78406	370.77313	1498.77612	-1043.59961	419.40543	1226.87805	-1044.80078	228.25772	1435.90051	-1057.62451	174.15172	1264.02869	-1091.42358	430.99863	1324.17810	-869.97888	270.33109	1477.89172	-784.25293	223.53647	1288.97925	-771.88904	175.02335	1151.72876	-818.66797	79.88922	1067.86633	-917.03131	-11.99172	1035.32520	-873.82562	-4.87456	999.34998	-900.99658	-61.06514	981.38574	-1231.57825	318.70203	1466.02393	-1302.43848	394.76666	1287.50549	-1321.78308	415.93188	1144.70410	-1345.96289	422.50470	1025.40857	-1331.64111	410.72989	887.74292	-1361.07434	457.95380	900.69598	-1360.35901	447.34354	826.36871	-917.58661	213.96646	958.63043	-1173.07263	201.34398	955.98248	-1008.06879	415.97394	1009.44910	-1119.70325	417.98633	1009.44678	-878.76801	351.14417	658.48145	-916.94757	433.39963	471.29321	-921.11816	545.59290	310.69632	-960.25397	607.88385	94.30858	-1011.69788	649.88812	75.49552	-949.96985	460.24985	34.91723	-1268.89746	218.28899	663.41736	-1243.97534	131.14119	473.93298	-1273.73669	90.69164	294.67627	-1262.42444	18.36639	110.48562	-1210.85400	23.53803	42.89591	-1273.10852	-145.03932	118.63707	-1066.55420	314.23047	1783.76135	-3357.08521	2846.07471	1034.27600 
54	0.530	-987.41534	188.02386	1721.89246	-1130.59766	194.90343	1708.40686	-974.44690	312.04556	1636.96057	-1117.48499	330.67825	1621.06421	-1039.38391	357.58240	1496.46143	-1046.40967	405.13165	1224.27429	-1047.24048	214.82495	1433.71326	-1060.21497	160.04901	1262.02759	-1094.49426	417.67426	1321.84375	-872.51355	257.28510	1475.68506	-786.37305	209.88318	1287.20557	-773.49377	160.11365	1150.40649	-821.97351	63.63439	1069.08679	-921.62750	-28.18794	1040.55554	-878.54462	-22.67882	1003.96661	-906.76666	-79.13110	988.22815	-1234.47717	305.67966	1463.71252	-1304.28027	382.31491	1285.36462	-1324.12769	403.95148	1142.87976	-1349.14612	411.80389	1023.96631	-1336.61609	400.47650	886.20624	-1364.41797	448.75534	899.63361	-1364.92163	438.66275	825.28992	-919.79181	199.42908	956.27386	-1174.86670	185.22630	954.12579	-1011.67670	401.01566	1007.16455	-1123.94543	402.24774	1007.53625	-880.15607	339.48520	657.78351	-917.84247	422.91940	471.29123	-921.40112	538.51862	313.23535	-959.42828	606.03717	98.07922	-1010.70453	648.46759	80.51339	-949.75854	460.09933	34.82438	-1271.86987	199.04825	662.58997	-1245.84399	110.87363	473.50800	-1275.44495	72.72099	293.49890	-1263.65210	3.58889	108.56242	-1211.77026	10.42007	41.05941	-1273.08325	-159.72963	114.02020	-1069.40015	299.69550	1782.05688			 
55	0.540	-989.73456	174.17131	1719.87488	-1133.22241	180.68285	1706.17749	-977.25476	298.14932	1635.44263	-1120.20862	316.93890	1619.46533	-1042.11377	343.90741	1494.23254	-1049.36475	390.86050	1221.90417	-1050.01758	201.24049	1432.00903	-1062.92834	145.94150	1260.50061	-1096.48767	403.74725	1319.16943	-875.03668	244.34599	1473.74512	-788.65442	196.35176	1285.37378	-775.01416	145.80531	1149.29504	-824.75519	47.53875	1070.52747	-925.46753	-43.46158	1045.02551	-882.62250	-39.79433	1008.11401	-911.76172	-96.32975	994.20544	-1237.08362	292.74164	1461.64819	-1306.67578	369.65866	1283.45813	-1326.69922	391.61526	1141.23999	-1352.49170	400.56143	1022.70532	-1341.74683	389.68066	884.82880	-1367.89490	438.72766	898.67450	-1369.61853	429.00443	824.32983	-922.22656	184.43826	954.03156	-1176.96863	168.58154	952.51715	-1015.42267	385.73135	1005.20245	-1128.19202	386.15405	1005.78259	-881.66809	326.75647	657.06146	-918.75830	411.31506	471.09604	-921.53302	530.45319	315.82086	-958.29865	603.72058	102.39077	-1009.42480	646.76782	86.22320	-949.51312	459.96402	34.77740	-1275.01318	177.99402	662.60889	-1247.73828	90.79101	472.82700	-1276.44690	56.39854	291.93259	-1263.82092	-8.01749	105.58743	-1212.11096	0.33734	38.45201	-1273.36365	-171.07886	107.93536	-1072.07898	285.16467	1780.35266	-3356.85205	2845.99438	1034.24536 
56	0.550	-992.38757	160.03893	1717.85925	-1135.86902	166.55122	1704.18103	-979.94568	284.66040	1634.00391	-1122.99670	303.28854	1618.12183	-1044.82446	330.71606	1492.37573	-1052.35559	376.34247	1219.60583	-1052.84326	187.74780	1430.40417	-1065.87646	131.78500	1259.40222	-1099.71582	390.02533	1317.00879	-877.61127	231.31830	1472.03455	-790.80237	183.11719	1284.01099	-776.71063	131.86212	1148.06177	-827.53754	32.87732	1071.71545	-928.79358	-58.23452	1048.97083	-886.28461	-56.03793	1011.64105	-916.25580	-112.69794	999.75409	-1239.67676	279.78824	1459.82263	-1309.91785	357.00217	1282.12671	-1329.40149	378.84784	1139.71008	-1355.92188	388.66125	1021.55560	-1346.82288	378.02835	883.69238	-1371.53076	427.75815	897.82068	-1374.44299	418.36380	823.53003	-924.76263	169.15979	951.96234	-1179.29309	151.37352	951.01758	-1019.21149	369.83719	1003.35059	-1132.44055	369.84821	1004.32605	-883.77240	313.63867	656.43695	-919.68701	398.75070	470.86182	-921.70520	521.58356	318.72116	-957.26483	600.92743	107.33878	-1008.22620	644.10089	92.68082	-949.30890	459.77484	34.74443	-1278.31348	155.99545	662.93677	-1249.89502	71.50984	471.86807	-1277.38843	41.64796	289.91025	-1263.60938	-17.35330	101.91507	-1211.70593	-7.23068	35.35357	-1273.64087	-179.89861	100.72968	-1075.05933	270.64841	1778.62305	-3356.91162	2845.97168	1034.27881 
57	0.560	-995.10480	145.91148	1715.87671	-1138.37036	152.49091	1702.26221	-982.65240	271.09476	1632.40356	-1125.73071	289.63031	1616.84192	-1047.53833	317.39496	1490.46289	-1055.55212	361.70474	1217.26843	-1055.81177	174.25327	1429.09058	-1068.89734	117.37068	1258.38892	-1102.13025	375.70218	1314.33630	-880.31500	218.30434	1470.36426	-792.92194	170.55664	1282.71875	-778.41077	118.51126	1146.97839	-829.86395	18.56778	1072.57324	-931.64996	-72.47611	1052.34363	-889.47729	-71.38696	1014.97058	-919.90918	-128.27614	1004.33862	-1242.56421	266.90149	1458.34021	-1312.65039	343.92041	1280.60486	-1332.31238	365.65967	1138.36218	-1359.47876	376.13022	1020.55371	-1352.02905	365.85718	882.62482	-1375.33569	416.00494	897.09772	-1379.39539	406.70596	822.86627	-927.48248	153.29495	950.08136	-1181.93127	133.83928	949.94904	-1023.16095	353.59494	1001.49634	-1136.65723	353.28046	1002.79395	-886.02289	298.90765	655.14545	-920.55853	385.44492	470.76340	-921.96765	511.99731	321.95923	-956.29089	597.56470	112.86061	-1007.07501	640.91589	99.92664	-949.08514	459.56415	34.68770	-1281.79163	133.44635	663.56494	-1252.23438	53.39052	470.59760	-1278.13013	28.45910	287.13651	-1262.97791	-24.94509	97.71707	-1210.13513	-13.64421	31.06964	-1273.31860	-186.93506	92.52364	-1077.36902	256.29132	1777.38538	-3356.72705	2846.01685	1034.31824 
